<?xml version="1.0" encoding="UTF-8"?>
<svg width="220px" height="175px" viewBox="0 0 220 175" version="1.1" xmlns="http://www.w3.org/2000/svg" xmlns:xlink="http://www.w3.org/1999/xlink">
    <title>bg</title>
    <g id="bg" stroke="none" stroke-width="1" fill="none" fill-rule="evenodd">
        <g>
            <path d="M5.5,13 C6.32842712,13 7,13.6715729 7,14.5 L7,17 L9.5,17 C10.3284271,17 11,17.6715729 11,18.5 C11,19.3284271 10.3284271,20 9.5,20 L7,20 L7,22.5 C7,23.3284271 6.32842712,24 5.5,24 C4.67157288,24 4,23.3284271 4,22.5 L4,20 L1.5,20 C0.671572875,20 1.01453063e-16,19.3284271 0,18.5 C-1.01453063e-16,17.6715729 0.671572875,17 1.5,17 L4,17 L4,14.5 C4,13.6715729 4.67157288,13 5.5,13 Z" id="矩形-3" fill="#FF4E00"></path>
            <path d="M196.5,144 C197.328427,144 198,144.671573 198,145.5 L198,148 L200.5,148 C201.328427,148 202,148.671573 202,149.5 C202,150.328427 201.328427,151 200.5,151 L198,151 L198,153.5 C198,154.328427 197.328427,155 196.5,155 C195.671573,155 195,154.328427 195,153.5 L195,151 L192.5,151 C191.671573,151 191,150.328427 191,149.5 C191,148.671573 191.671573,148 192.5,148 L195,148 L195,145.5 C195,144.671573 195.671573,144 196.5,144 Z" id="矩形-3" fill="#FF4E00"></path>
            <path d="M14,105 C14.5522847,105 15,105.447715 15,106 L15,108 L17,108 C17.5522847,108 18,108.447715 18,109 C18,109.552285 17.5522847,110 17,110 L15,110 L15,112 C15,112.552285 14.5522847,113 14,113 C13.4477153,113 13,112.552285 13,112 L13,110 L11,110 C10.4477153,110 10,109.552285 10,109 C10,108.447715 10.4477153,108 11,108 L13,108 L13,106 C13,105.447715 13.4477153,105 14,105 Z" id="矩形-2" fill="#FFBA00"></path>
            <rect id="矩形" fill="#EEEEEE" x="19" y="129" width="44" height="16" rx="7.5"></rect>
            <rect id="矩形" fill="#EEEEEE" x="48" y="21" width="30" height="16" rx="7.5"></rect>
            <path d="M160,80 C155.581722,80 152,76.418278 152,72 C152,67.581722 155.581722,64 160,64 L208,64 C212.418278,64 216,67.581722 216,72 C216,76.418278 212.418278,80 208,80 L210,80 L210,80 C205.581722,80 202,83.581722 202,88 C202,92.418278 205.581722,96 210,96 L212,96 C216.418278,96 220,99.581722 220,104 C220,108.418278 216.418278,112 212,112 L169,112 C164.581722,112 161,108.418278 161,104 C161,99.581722 164.581722,96 169,96 L170,96 C174.418278,96 178,92.418278 178,88 C178,83.581722 174.418278,80 170,80 L160,80 Z" id="矩形-4" fill="#EEEEEE"></path>
            <circle id="椭圆形" stroke="#FF4B00" stroke-width="1.5" cx="157.5" cy="3.5" r="2.75"></circle>
            <circle id="椭圆形" stroke="#FFBA00" stroke-width="1.5" cx="217" cy="54" r="2.25"></circle>
            <circle id="椭圆形" stroke="#FFBA00" stroke-width="1.5" cx="112.5" cy="170.5" r="3.75"></circle>
        </g>
    </g>
</svg>