<?xml version="1.0" encoding="UTF-8"?>
<svg width="40px" height="40px" viewBox="0 0 40 40" version="1.1" xmlns="http://www.w3.org/2000/svg" xmlns:xlink="http://www.w3.org/1999/xlink">
    <title>摇一摇</title>
    <g id="摇一摇" stroke="none" stroke-width="1" fill="none" fill-rule="evenodd">
        <g fill="#CCCCCC" fill-rule="nonzero" id="形状">
            <path d="M16.0359981,8.55430643 L21.0840992,7.17728728 C21.3276041,7.11082942 21.4709312,6.8604954 21.4041459,6.61813821 C21.3374066,6.37578103 21.0858397,6.23311071 20.8422432,6.29952308 L15.794188,7.67654223 C15.5506373,7.74295455 15.4072644,7.99337973 15.4740496,8.23573687 C15.5408349,8.47809406 15.7924474,8.62071879 16.0359981,8.55430643 L16.0359981,8.55430643 Z M33.9312288,28.7888305 L33.6559803,27.7895457 C34.3631798,27.0338033 34.6725996,25.9423527 34.3782042,24.8732826 C34.1305309,23.9741862 33.5068358,23.2787026 32.7226363,22.9067114 C33.5042249,22.1315513 33.856794,20.9723208 33.5442594,19.8377956 C33.2617735,18.8123927 32.5014389,18.0454372 31.5683698,17.7077233 C32.1980197,16.9437307 32.4589309,15.8982263 32.1764908,14.8728233 C31.894005,13.8473748 31.1338079,13.0804649 30.2006013,12.7427967 C30.830297,11.9787584 31.0912082,10.9332996 30.8086766,9.90789665 C30.4547333,8.62295223 29.3509908,7.74350143 28.0961801,7.60698464 L27.1659509,4.23034768 C26.7644151,2.77292263 25.2518079,1.91535098 23.7871596,2.31491902 L11.1290256,5.76781393 C9.66442321,6.1672908 8.8026283,7.67266763 9.2041183,9.13000156 L9.57899491,10.4908849 C8.33206277,11.2343202 7.35703527,12.2677912 6.67667812,13.2211296 C5.87841621,14.3397013 5.31445219,16.7954994 5.14029759,18.1107556 C4.9662346,19.4260574 6.12512754,21.9291692 6.28361647,22.2612308 C6.44215121,22.5932469 7.10148339,23.6478677 5.88372973,24.9475349 C4.66602183,26.2472478 1.63957067,28.0404267 0.988208705,28.7184524 C0.336846741,29.3965238 -0.976046071,31.6896869 1.2413329,33.6537511 C3.45875772,35.6178608 7.77387036,39.1115057 7.77387036,39.1115057 C7.77387036,39.1115057 10.8453031,41.3763626 12.9060712,38.5122904 L14.9668394,35.6481271 L16.0244551,33.863244 C16.4946084,35.2133701 17.9431787,35.9872083 19.3480501,35.6039129 L32.0061841,32.1510636 C33.4710613,31.7515412 34.3327646,30.2461644 33.9312288,28.7888305 L33.9312288,28.7888305 Z M31.9101745,27.5675179 L27.7836912,28.6932459 C26.7403669,28.9777205 25.6627797,28.3668819 25.3768126,27.3287162 C25.0907996,26.2905048 25.7046464,25.218244 26.7480166,24.9336326 L30.8744999,23.8079502 C31.9177326,23.5233845 32.9953655,24.1342687 33.2813785,25.1724345 C33.5672999,26.210737 32.953453,27.2829522 31.9101745,27.5675179 L31.9101745,27.5675179 Z M32.421599,20.1440582 C32.7143455,21.2066557 32.0859781,22.3041231 31.0181934,22.5953894 L26.0296862,23.9561815 C26.0292738,23.9561815 26.028999,23.9562726 26.0287242,23.9563638 C24.9609395,24.2476756 23.8580216,23.6225244 23.5653209,22.5598357 C23.2726662,21.4972838 23.9009876,20.3998163 24.9688181,20.1085046 L29.9582416,18.7475301 C31.0260263,18.4562183 32.1288983,19.0815063 32.421599,20.1440582 L32.421599,20.1440582 Z M31.0539221,15.1790404 C31.3466686,16.2415923 30.7182554,17.3391053 29.6504707,17.6303715 L24.6619176,18.9912092 C24.661597,18.9913004 23.164518,19.3996201 23.1641974,19.3997568 C22.0963669,19.691023 20.9934489,19.0657806 20.7007942,18.0031831 C20.4080477,16.9405856 21.0364608,15.8431182 22.1042456,15.551852 L28.5905189,13.7825122 C29.6582578,13.4912461 30.7611299,14.1164884 31.0539221,15.1790404 L31.0539221,15.1790404 Z M29.6861995,10.2140681 C29.9789459,11.2766201 29.3505786,12.374133 28.2827481,12.6653992 L23.2941949,14.0261458 C23.2939201,14.026237 23.2936453,14.0263281 23.2932331,14.0264193 C22.2254483,14.3177311 21.1225762,13.6924431 20.8298756,12.6298912 C20.5371292,11.5672937 21.1654965,10.4698263 22.2332812,10.1785601 L27.222842,8.81749451 C28.2905808,8.52627379 29.3934531,9.15151616 29.6861995,10.2140681 L29.6861995,10.2140681 Z M10.9809346,9.73760402 C10.6798057,8.64455795 11.3261749,7.51554808 12.4246038,7.21594045 L23.4617534,4.20514116 C24.5601824,3.90553348 25.6947981,4.548735 25.9958355,5.64178103 L26.5876038,7.78976679 L25.3078745,8.13887598 C24.9900263,7.65461741 24.3839666,7.40669937 23.7933434,7.56778455 L14.0964787,10.2129286 C13.812756,10.2903261 13.5745646,10.4509555 13.4005016,10.6608131 C12.9542133,10.3717803 12.0080437,9.85556906 11.0337491,9.92927451 L10.9809346,9.73760402 L10.9809346,9.73760402 Z M11.3665758,16.9795579 L15.4535743,31.8158112 L11.614249,37.2298987 C11.614249,37.2298987 10.5528771,38.85397 9.18190228,37.8934296 C7.81092737,36.9328892 7.81092728,36.9328892 7.81092728,36.9328892 L2.26615147,32.1398506 C2.26615147,32.1398506 1.17280696,30.9701363 2.1868154,30.0262788 C3.20082384,29.0824213 3.20082379,29.0824213 3.20082379,29.0824213 C3.20082379,29.0824213 5.8440158,26.9936004 6.59747946,26.3209076 C7.35094308,25.6483061 9.01255737,24.3776287 7.96767562,21.8018143 C6.92279397,19.2259999 6.86553643,18.7745601 6.85600875,18.0097925 C6.84652692,17.2450706 7.53260987,14.9893299 8.01357335,14.0574604 C8.01357335,14.0574604 8.80780437,12.7633996 10.0049454,11.9902451 C10.4295216,11.7189437 10.8586783,11.5593626 11.1843136,11.4893037 C11.8155208,11.3763981 12.3881881,11.5503829 12.8757018,11.8073719 C12.9455102,11.8344473 13.0519176,11.887094 13.1861751,11.9593863 C13.2044059,11.9691864 13.2231406,11.9793967 13.2423792,11.989926 C13.2566248,11.9977204 13.2708247,12.0055149 13.2855742,12.013674 C13.2996825,12.0215141 13.314203,12.029582 13.3287235,12.0376955 C13.3428318,12.0456267 13.3572149,12.0536491 13.3717354,12.0618537 C13.3868972,12.0703774 13.4019217,12.0788101 13.4174956,12.0876529 C13.4345813,12.0973162 13.4522624,12.1074353 13.469852,12.1175544 C13.4958698,12.132414 13.5224374,12.1476838 13.5496461,12.1634094 C13.5646246,12.1720699 13.5796032,12.1806849 13.5949941,12.1896188 C13.6135913,12.2004673 13.6324633,12.2114524 13.6515187,12.2226199 C13.6659476,12.2310525 13.6806056,12.2396219 13.6953093,12.2482823 C13.7153724,12.2600424 13.735298,12.2717112 13.7557733,12.2837904 C13.7654842,12.2894881 13.7755615,12.2955504 13.7854098,12.3012937 C13.8273681,12.3260901 13.8702426,12.3516158 13.914079,12.377734 C13.9283246,12.3862121 13.9425245,12.3946448 13.9569076,12.4033053 C13.979719,12.4169342 14.0027137,12.4307454 14.0259373,12.4446478 C14.0410533,12.4537185 14.0563525,12.462926 14.0716517,12.4721334 C14.1514001,12.5201308 14.2334845,12.5698147 14.3176302,12.6210484 C14.3335707,12.6307573 14.3495112,12.6404662 14.3655892,12.6502662 C14.389958,12.6651258 14.4143726,12.6800309 14.439062,12.6950729 C14.4571096,12.7061492 14.4753404,12.7173167 14.4935254,12.7284386 C16.2458356,13.8019757 18.7124454,15.4095464 18.7124454,15.4095464 C18.3718316,17.3374188 17.3945138,18.1711969 15.2619676,18.2191031 C15.1305501,18.2220203 15.0016519,18.2205617 14.8753646,18.2152742 C14.3987527,18.2139979 13.2347754,17.9191308 13.2347754,17.9191308 C12.2192553,17.5919462 11.5497999,17.1001212 11.3665758,16.9795579 L11.3665758,16.9795579 Z M19.7590219,33.8404078 C18.6605929,34.140061 17.5259772,33.4969506 17.2248941,32.4039046 L13.7202736,19.68177 C14.3598633,19.7938551 15.3114381,19.7985956 15.3114381,19.7985956 L17.5744399,28.0133057 C17.7751621,28.7419726 18.5315114,29.1708952 19.2638585,28.9711567 L23.9802321,27.6844803 C23.9822933,27.6924114 23.9839881,27.7002515 23.9861869,27.7080916 C24.0489869,27.9362273 24.1368887,28.1508708 24.2446246,28.350974 C23.5412269,28.5995758 23.1393246,29.3499396 23.3398178,30.0779229 C23.5499301,30.8405025 24.3415044,31.2893442 25.1079311,31.0802615 C25.6905382,30.9213186 26.0904707,30.4279893 26.1567063,29.8655583 C26.6743604,30.0066788 27.2354387,30.0162966 27.7906079,29.8647834 L32.2108912,28.6590598 C32.2414896,28.6507639 32.2713551,28.6410551 32.3015413,28.6318932 C32.4086817,29.6158625 31.7862692,30.55972 30.7963089,30.8296996 L19.7590219,33.8404078 L19.7590219,33.8404078 Z M3.64042437,7.69545857 C3.77376576,7.73370152 3.90907683,7.73237964 4.03380674,7.69833022 C4.27016589,7.63383228 4.46818545,7.45205299 4.54110866,7.20057951 C5.31316955,4.53816009 7.33000973,2.38497799 9.93619036,1.44071022 C10.3137238,1.30396554 10.5083537,0.888443973 10.3708898,0.51276067 C10.2334258,0.137077366 9.816545,-0.0561884821 9.43837027,0.0801915625 C6.39698634,1.18212598 4.0436092,3.69389826 3.14315397,6.79918817 C3.03170786,7.18330406 3.25437107,7.5846042 3.64042437,7.69545857 L3.64042437,7.69545857 Z M10.5047351,3.00675616 C8.40782594,3.76901674 6.78180295,5.5016633 6.15508464,7.64167228 C6.04267661,8.02551464 6.26424045,8.42736179 6.65001893,8.53926455 C6.7838642,8.57805451 6.91990817,8.57682371 7.04523348,8.54263759 C7.28095143,8.47836759 7.47855871,8.29736312 7.55198571,8.04671013 C8.04962263,6.34724701 9.34011629,4.97159527 11.0038835,4.36677344 C11.3812795,4.2295729 11.5754513,3.8139146 11.4376209,3.43836808 C11.2998363,3.06282147 10.8820852,2.86960125 10.5047351,3.00675616 L10.5047351,3.00675616 Z M39.2256289,29.2235419 C39.0875237,29.2103233 38.954732,29.2364415 38.8383846,29.2927347 C38.6180575,29.39935 38.4570035,29.6144038 38.4317644,29.8749026 C38.165219,32.6330888 36.5809712,35.1187429 34.1937433,36.5241594 C33.8479535,36.727681 33.7334383,37.1716455 33.9380081,37.5158319 C34.1426695,37.8598816 34.5880417,37.9735621 34.934656,37.7702226 C37.7203506,36.1302891 39.56922,33.2305264 39.8801514,30.0134705 C39.9186744,29.6154522 39.6256073,29.2616481 39.2256289,29.2235419 L39.2256289,29.2235419 Z M36.763783,29.7367448 C36.8033137,29.3388633 36.5111627,28.984421 36.1114133,28.9450385 C35.9725752,28.9314552 35.8390506,28.9574823 35.7222452,29.0141401 C35.502422,29.1203908 35.3416886,29.334533 35.3158081,29.594348 C35.1408749,31.3558932 34.126729,32.9443197 32.6031742,33.8435073 C32.2575676,34.0474392 32.1435563,34.4915861 32.3485384,34.835499 C32.5534746,35.1793663 32.9998088,35.2928644 33.3454154,35.0887958 C35.2656047,33.9556835 36.5434559,31.9549262 36.763783,29.7367448 L36.763783,29.7367448 Z"></path>
        </g>
    </g>
</svg>